<svg width="15" height="15" viewBox="0 0 15 15" fill="none" xmlns="http://www.w3.org/2000/svg">
<path d="M7.64417 0.288281C7.55393 0.237891 7.44377 0.237891 7.35354 0.288281C7.08401 0.440625 0.75354 4.05234 0.75354 8.43984C0.75354 10.384 2.3344 11.9648 4.27737 11.9648C5.14104 11.9648 5.93557 11.6496 6.55198 11.1281C6.2262 13.0793 5.56174 14.291 5.55354 14.3063C5.50198 14.3988 5.50315 14.5102 5.55588 14.6016C5.60862 14.6918 5.70588 14.7469 5.81135 14.7469H9.1887C9.29299 14.7469 9.39026 14.6918 9.44417 14.6016C9.4969 14.5102 9.49807 14.3988 9.44768 14.3063C9.43831 14.291 8.77502 13.0781 8.44807 11.127C9.06448 11.6484 9.85901 11.9637 10.7227 11.9637C12.6656 11.9637 14.2465 10.3828 14.2465 8.43867C14.2465 4.05234 7.91487 0.440625 7.64417 0.288281Z" fill="#357337"/>
</svg>
